<svg width="949" height="705" viewBox="0 0 949 705" fill="none" xmlns="http://www.w3.org/2000/svg">
<path d="M213.009 366.898C180.98 438.074 230.355 491.986 259.988 510.76C260.678 511.198 261.817 512.156 262.304 512.812C265.798 517.518 257.314 517.324 253.45 512.916L89.5089 325.898C61.053 283.471 43.4369 417.252 74.1271 426.673C78.02 427.868 82.3413 428.38 85.5079 430.94C93.7139 437.575 91.4746 450.711 82.5311 456.311C11.948 500.514 110.915 575.632 163.009 578.398C325.009 587 261.009 737 359.009 662.898C419.002 611 510.609 583.398 541.009 623.398C640.719 754.596 858.608 574.479 887.4 412.226C895.865 364.525 894.939 326.142 876.509 311.398C813.547 261.028 741.393 356.918 660.815 353.988C636.888 353.119 615.997 345.261 603.009 337.398C533.332 297.538 489.295 199.981 444.023 266.269C421.405 299.387 385.439 333.173 325.009 318.898C256.22 302.649 221.509 344.898 213.009 366.898Z" fill="#CDDDFF"/>
</svg>
